<!DOCTYPE svg PUBLIC "-//W3C//DTD SVG 1.1//EN" "http://www.w3.org/Graphics/SVG/1.1/DTD/svg11.dtd">
<!-- Uploaded to: SVG Repo, www.svgrepo.com, Transformed by: SVG Repo Mixer Tools -->
<svg fill="#a687ba" width="800px" height="800px" viewBox="0 0 32 32" xmlns="http://www.w3.org/2000/svg" stroke="#a687ba">
<g id="SVGRepo_bgCarrier" stroke-width="0"/>
<g id="SVGRepo_tracerCarrier" stroke-linecap="round" stroke-linejoin="round"/>
<g id="SVGRepo_iconCarrier"> <title/> <g data-name="Layer 9" id="Layer_9"> <path d="M31,16.86,29.08,3.3A2.45,2.45,0,0,0,26.64,1H5.36A2.43,2.43,0,0,0,2.93,3.22L1,16.94a2.21,2.21,0,0,0,.71,1.62c.1.1.2.2.32.3A.7.7,0,0,0,2,19v8.34A2.76,2.76,0,0,0,4.83,30H27.17A2.76,2.76,0,0,0,30,27.34V19a.7.7,0,0,0,0-.14c.12-.1.22-.2.32-.3A2.21,2.21,0,0,0,31,16.86ZM4.92,3.41A.43.43,0,0,1,5.36,3H26.64a.46.46,0,0,1,.45.49L29,17a2.89,2.89,0,0,1-1.52,1H4.53A2.93,2.93,0,0,1,3,17ZM28,27.34a.77.77,0,0,1-.83.66H4.83A.77.77,0,0,1,4,27.34V19.93a2.49,2.49,0,0,0,.53.07H27.47a2.49,2.49,0,0,0,.53-.07Z"/> <path d="M9,10H23a3,3,0,0,0,0-6H9a3,3,0,0,0,0,6ZM9,6H23a1,1,0,0,1,0,2H9A1,1,0,0,1,9,6Z"/> </g> </g>
</svg>