<?xml version="1.0" encoding="iso-8859-1"?>
<!-- Uploaded to: SVG Repo, www.svgrepo.com, Generator: SVG Repo Mixer Tools -->
<svg fill="##505050" height="800px" width="800px" version="1.1" id="Layer_1" xmlns="http://www.w3.org/2000/svg" xmlns:xlink="http://www.w3.org/1999/xlink" 
	 viewBox="0 0 512 512" xml:space="preserve">
<g>
	<g>
		<g>
			<path d="M437.039,280.544c-8.771-39.364-38.166-71.04-76.217-83.045c16.894-13.568,27.739-34.375,27.739-57.679
				c0-40.785-33.182-73.966-73.967-73.966s-73.966,33.182-73.966,73.966c0,23.308,10.848,44.119,27.748,57.687
				c-18.742,5.913-35.382,16.597-48.496,30.622c-13.116-14.028-29.758-24.716-48.503-30.629
				c16.896-13.568,27.739-34.375,27.739-57.681c0-40.785-33.182-73.966-73.967-73.966S51.183,99.036,51.183,139.82
				c0,23.304,10.845,44.113,27.739,57.681C33.226,211.915,0,254.693,0,305.09v36.449c0,5.932,4.809,10.742,10.742,10.742h335.995
				c-0.468,3.559-0.735,7.182-0.735,10.866c0,45.766,37.234,83,83,83c45.766,0,82.999-37.233,82.999-83
				C512,320.093,479.047,284.6,437.039,280.544z M262.11,139.819c0-28.939,23.544-52.483,52.483-52.483
				c28.939,0,52.484,23.544,52.484,52.483c0,28.939-23.544,52.483-52.484,52.483C285.653,192.301,262.11,168.759,262.11,139.819z
				 M72.665,139.819c0-28.939,23.544-52.483,52.483-52.483s52.484,23.544,52.484,52.483c0,28.939-23.544,52.483-52.484,52.483
				C96.21,192.303,72.665,168.759,72.665,139.819z M228.815,330.797H21.483V305.09c0-50.345,40.959-91.304,91.304-91.304h24.723
				c44.021,0,80.864,31.316,89.426,72.841h-59.655c-5.933,0-10.742,4.81-10.742,10.742c0,5.932,4.809,10.742,10.742,10.742h61.533
				V330.797z M250.298,330.795v-25.706c0-21.889-6.275-42.338-17.11-59.654c16.753-19.368,41.486-31.65,69.044-31.65h24.723
				c42.128,0,77.65,28.691,88.133,67.551c-28.213,4.783-51.633,23.833-62.521,49.459H250.298z M429.001,424.662
				c-33.92,0-61.516-27.595-61.516-61.516c0-33.919,27.595-61.515,61.516-61.515c33.92,0,61.515,27.595,61.515,61.515
				C490.517,397.066,462.92,424.662,429.001,424.662z"/>
			<path d="M450.075,352.404h-10.333V342.07c0-5.932-4.809-10.742-10.742-10.742s-10.742,4.81-10.742,10.742v10.333h-10.333
				c-5.933,0-10.742,4.81-10.742,10.742c0,5.932,4.809,10.742,10.742,10.742h10.333v10.333c0,5.932,4.809,10.742,10.742,10.742
				s10.742-4.81,10.742-10.742v-10.333h10.333c5.933,0,10.742-4.81,10.742-10.742C460.817,357.214,456.008,352.404,450.075,352.404z
				"/>
			<path d="M125.149,286.626H114.29c-5.933,0-10.742,4.81-10.742,10.742c0,5.932,4.809,10.742,10.742,10.742h10.859
				c5.933,0,10.742-4.81,10.742-10.742C135.891,291.436,131.082,286.626,125.149,286.626z"/>
		</g>
	</g>
</g>
</svg>