<!DOCTYPE svg PUBLIC "-//W3C//DTD SVG 1.1//EN" "http://www.w3.org/Graphics/SVG/1.1/DTD/svg11.dtd">
<!-- Uploaded to: SVG Repo, www.svgrepo.com, Transformed by: SVG Repo Mixer Tools -->
<svg width="800px" height="800px" viewBox="0 0 1024 1024" class="icon" version="1.1" xmlns="http://www.w3.org/2000/svg" fill="#000000">
<g id="SVGRepo_bgCarrier" stroke-width="0"/>
<g id="SVGRepo_tracerCarrier" stroke-linecap="round" stroke-linejoin="round"/>
<g id="SVGRepo_iconCarrier">
<path d="M190.171429 782.628571l277.942857-277.942857 160.914285 146.285715L870.4 365.714286v555.885714l-687.542857 7.314286z" fill="#ebb8f5"/>
<path d="M870.4 928.914286c-14.628571 0-21.942857-7.314286-21.942857-21.942857V387.657143c0-14.628571 7.314286-21.942857 21.942857-21.942857 14.628571 0 21.942857 7.314286 21.942857 21.942857v519.314286c0 14.628571-7.314286 21.942857-21.942857 21.942857zM658.285714 928.914286h-14.628571c-7.314286 0-14.628571-7.314286-14.628572-14.628572V650.971429c0-7.314286 7.314286-14.628571 14.628572-14.628572H658.285714c7.314286 0 14.628571 7.314286 14.628572 14.628572v263.314285c0 7.314286-7.314286 14.628571-14.628572 14.628572zM424.228571 928.914286h-7.314285c-7.314286 0-14.628571-7.314286-14.628572-14.628572V614.4c0-7.314286 7.314286-14.628571 14.628572-14.628571h7.314285c7.314286-7.314286 14.628571 0 14.628572 14.628571v299.885714c0 7.314286-7.314286 14.628571-14.628572 14.628572zM182.857143 928.914286h-21.942857c-7.314286 0-7.314286-7.314286-7.314286-7.314286v-131.657143c0-7.314286 7.314286-7.314286 7.314286-7.314286h21.942857c7.314286 0 7.314286 7.314286 7.314286 7.314286v131.657143s0 7.314286-7.314286 7.314286zM190.171429 614.4l277.942857-256L585.142857 453.485714l219.428572-241.371428 65.828571 73.142857 58.514286-226.742857-241.371429 36.571428 73.142857 80.457143-182.857143 197.485714-109.714285-95.085714-314.514286 292.571429z" fill="#a724cc"/>
</g>
</svg>