 <svg  version="1.0" xmlns="http://www.w3.org/2000/svg"  width="300.000000pt" height="169.000000pt" viewBox="0 0 300.000000 169.000000"  preserveAspectRatio="xMidYMid meet">  <g transform="translate(0.000000,169.000000) scale(0.100000,-0.100000)" fill="#8c38b2" stroke="none"> <path d="M1500 1191 c0 -5 -11 -12 -24 -15 -48 -12 -55 -79 -12 -115 22 -18 32 6 11 29 -18 20 -13 55 9 63 10 4 15 -7 19 -36 4 -32 0 -50 -18 -80 l-23 -39 -12 36 c-6 20 -15 38 -20 41 -4 3 -23 -13 -40 -35 -36 -45 -25 -55 15 -13 26 29 28 28 29 -31 2 -52 31 -41 62 22 l27 57 10 -32 c5 -18 14 -33 18 -33 4 0 25 20 45 45 21 24 41 42 46 39 4 -3 8 4 8 15 0 15 -6 21 -22 21 -12 0 -18 -3 -15 -6 4 -4 -8 -25 -25 -46 l-31 -40 -19 49 c-24 63 -23 85 1 56 22 -27 41 -30 41 -8 0 9 -13 24 -30 33 -16 9 -30 20 -30 25 0 4 -4 7 -10 7 -5 0 -10 -4 -10 -9z"/> <path d="M1508 1017 c-5 -10 -8 -27 -8 -37 0 -10 -8 -21 -17 -25 -17 -6 -17 -7 0 -16 9 -6 17 -17 17 -24 0 -8 5 -15 10 -15 6 0 10 9 10 20 0 13 7 20 18 20 28 0 54 34 50 67 l-3 28 -22 -37 c-12 -21 -27 -38 -32 -38 -5 0 -11 17 -13 38 -2 27 -5 32 -10 19z"/> <path d="M540 771 c0 -26 16 -35 24 -15 10 25 7 34 -9 34 -8 0 -15 -9 -15 -19z"/> <path d="M580 726 l0 -66 35 0 36 0 -3 63 c-3 62 -3 62 -35 65 l-33 3 0 -65z m50 -6 c0 -29 -4 -40 -15 -40 -11 0 -15 11 -15 40 0 29 4 40 15 40 11 0 15 -11 15 -40z"/> <path d="M670 726 c0 -52 3 -66 15 -66 11 0 14 7 9 25 -4 15 -2 25 5 25 11 0 15 -13 12 -37 -1 -9 12 -13 40 -13 33 0 40 3 35 16 -3 9 -6 38 -6 65 0 34 -4 49 -13 49 -10 0 -12 -15 -9 -60 3 -40 1 -60 -7 -60 -11 0 -13 6 -15 75 -1 38 -3 40 -33 43 l-33 3 0 -65z"/> <path d="M795 771 c3 -10 9 -38 13 -62 8 -46 36 -66 46 -32 12 44 18 113 8 113 -5 0 -14 -21 -19 -47 l-10 -48 -7 48 c-6 31 -13 47 -23 47 -10 0 -12 -6 -8 -19z"/> <path d="M885 725 l0 -65 33 0 c22 0 32 5 32 16 0 11 -6 14 -20 9 -14 -5 -20 -2 -20 9 0 9 7 16 15 16 8 0 15 7 15 15 0 9 -6 12 -15 9 -9 -4 -15 0 -15 10 0 9 8 16 20 16 11 0 20 7 20 15 0 10 -10 15 -32 15 l-33 0 0 -65z"/> <path d="M1000 775 c-17 -20 -9 -48 18 -60 22 -10 31 -35 12 -35 -5 0 -10 5 -10 10 0 6 -7 10 -16 10 -31 0 -10 -35 24 -38 31 -3 32 -2 32 32 0 29 -4 36 -20 36 -11 0 -20 7 -20 15 0 11 7 14 25 9 27 -7 33 4 13 24 -16 16 -43 15 -58 -3z"/> <path d="M1087 743 c-2 -27 -8 -56 -12 -65 -5 -13 -2 -18 9 -18 9 0 16 7 16 15 0 8 7 15 15 15 8 0 15 -7 15 -15 0 -11 12 -15 51 -15 36 0 49 4 46 13 -2 6 -12 11 -21 9 -15 -3 -17 4 -15 50 3 43 0 54 -14 56 -14 3 -16 -3 -11 -42 4 -25 3 -53 -1 -63 -7 -16 -9 -15 -15 7 -5 14 -8 42 -9 63 -1 32 -4 37 -25 37 -21 0 -24 -6 -29 -47z"/> <path d="M1240 725 l0 -65 35 0 c25 0 33 4 29 14 -3 8 -13 12 -25 9 -13 -4 -19 0 -19 11 0 9 7 16 15 16 8 0 15 4 15 9 0 5 -7 11 -15 15 -22 8 -18 26 5 26 11 0 20 7 20 15 0 10 -10 15 -30 15 l-30 0 0 -65z"/> <path d="M1325 778 c-13 -39 -9 -53 18 -66 23 -11 26 -17 17 -26 -10 -8 -14 -8 -17 2 -8 21 -32 14 -26 -9 4 -16 12 -19 37 -17 27 3 31 7 31 33 0 23 -5 31 -22 33 -13 2 -23 10 -23 18 0 10 7 13 25 8 27 -7 33 4 13 24 -16 16 -47 15 -53 0z"/> <path d="M1465 725 l0 -65 33 0 c22 0 32 5 32 16 0 11 -6 14 -20 9 -14 -5 -20 -2 -20 9 0 9 7 16 15 16 8 0 15 7 15 15 0 9 -6 12 -15 9 -9 -4 -15 0 -15 10 0 9 8 16 20 16 11 0 20 7 20 15 0 10 -10 15 -32 15 l-33 0 0 -65z"/> <path d="M1546 773 c4 -10 8 -31 8 -48 0 -16 -4 -38 -8 -47 -6 -13 -4 -18 7 -18 8 0 18 10 22 23 l8 22 4 -22 c2 -13 11 -23 20 -23 11 0 13 5 7 18 -9 21 -9 59 1 90 5 15 3 22 -5 22 -6 0 -14 -9 -17 -20 -3 -11 -9 -20 -14 -20 -5 0 -9 9 -9 20 0 12 -7 20 -16 20 -12 0 -14 -5 -8 -17z"/> <path d="M1634 777 c-3 -8 -4 -36 -2 -63 3 -45 5 -49 31 -52 27 -3 48 21 32 36 -4 4 -10 1 -12 -5 -3 -7 -11 -13 -19 -13 -10 0 -14 12 -14 40 0 29 4 40 15 40 8 0 15 -4 15 -10 0 -5 5 -10 11 -10 6 0 9 10 7 23 -4 26 -54 38 -64 14z"/> <path d="M1718 725 l-3 -65 33 0 c21 0 32 5 32 14 0 9 -7 12 -20 9 -14 -4 -20 0 -20 11 0 9 7 16 15 16 8 0 15 7 15 15 0 9 -6 12 -15 9 -9 -4 -15 0 -15 10 0 9 8 16 20 16 11 0 20 7 20 15 0 10 -10 15 -29 15 -29 0 -29 -1 -33 -65z"/> <path d="M1795 725 l0 -65 33 0 c22 0 32 5 32 16 0 11 -6 14 -20 9 -14 -5 -20 -2 -20 9 0 9 7 16 15 16 8 0 15 5 15 10 0 6 -7 10 -15 10 -8 0 -15 7 -15 15 0 8 9 15 20 15 11 0 20 7 20 15 0 10 -10 15 -32 15 l-33 0 0 -65z"/> <path d="M1874 725 l1 -66 35 3 35 3 0 60 0 60 -36 3 -35 3 0 -66z m56 -5 c0 -29 -4 -40 -15 -40 -11 0 -15 11 -15 40 0 29 4 40 15 40 11 0 15 -11 15 -40z"/> <path d="M2001 776 c-7 -8 -11 -36 -9 -63 3 -48 3 -48 38 -48 32 0 35 3 38 33 3 27 0 32 -17 32 -12 0 -21 -4 -21 -10 0 -5 5 -10 10 -10 6 0 10 -7 10 -15 0 -8 -7 -15 -15 -15 -11 0 -15 11 -15 41 0 39 1 41 25 35 27 -7 32 3 13 22 -16 16 -43 15 -57 -2z"/> <path d="M2084 776 c-3 -7 -4 -35 -2 -62 3 -47 4 -49 34 -52 32 -3 32 -3 36 50 2 29 0 59 -5 66 -13 16 -56 15 -63 -2z m46 -56 c0 -29 -4 -40 -15 -40 -11 0 -15 11 -15 40 0 29 4 40 15 40 11 0 15 -11 15 -40z"/> <path d="M2177 743 c-3 -27 -9 -56 -12 -65 -5 -13 -2 -18 9 -18 9 0 16 7 16 15 0 8 7 15 15 15 8 0 15 -7 15 -15 0 -11 12 -15 51 -15 36 0 49 4 46 13 -2 6 -11 11 -21 9 -13 -2 -16 7 -16 53 0 42 -4 55 -15 55 -12 0 -13 -9 -9 -44 4 -25 3 -53 -1 -63 -7 -17 -8 -17 -15 2 -5 11 -9 39 -9 63 -1 37 -4 42 -25 42 -20 0 -24 -6 -29 -47z"/> <path d="M2334 776 c-11 -29 0 -61 24 -64 12 -2 22 -10 22 -18 0 -17 -27 -19 -33 -1 -2 6 -8 9 -12 5 -16 -15 5 -39 32 -36 24 3 28 8 28 33 0 23 -5 31 -22 33 -13 2 -23 10 -23 19 0 11 6 14 26 9 21 -6 25 -4 22 11 -4 23 -56 31 -64 9z"/> <path d="M2442 768 c5 -32 28 -35 28 -4 0 17 -5 26 -16 26 -10 0 -14 -7 -12 -22z"/> </g> </svg> 