<?xml version="1.0" encoding="iso-8859-1"?>
<!-- Uploaded to: SVG Repo, www.svgrepo.com, Generator: SVG Repo Mixer Tools -->
<!DOCTYPE svg PUBLIC "-//W3C//DTD SVG 1.1//EN" "http://www.w3.org/Graphics/SVG/1.1/DTD/svg11.dtd">
<svg fill="#000000" height="800px" width="800px" version="1.1" id="Capa_1" xmlns="http://www.w3.org/2000/svg" xmlns:xlink="http://www.w3.org/1999/xlink" 
	 viewBox="0 0 285.708 285.708" xml:space="preserve">
<g>
	<path d="M73.26,90.095c24.779,0,44.939-20.209,44.939-45.05C118.199,20.207,98.039,0,73.26,0c-24.78,0-44.94,20.207-44.94,45.045
		C28.319,69.886,48.479,90.095,73.26,90.095z M73.26,15c16.509,0,29.939,13.479,29.939,30.045c0,16.569-13.431,30.05-29.939,30.05
		s-29.94-13.481-29.94-30.05C43.319,28.479,56.751,15,73.26,15z"/>
	<path d="M212.449,90.095c24.779,0,44.939-20.209,44.939-45.05C257.389,20.207,237.228,0,212.449,0
		c-24.78,0-44.94,20.207-44.94,45.045C167.509,69.886,187.669,90.095,212.449,90.095z M212.449,15
		c16.509,0,29.939,13.479,29.939,30.045c0,16.569-13.431,30.05-29.939,30.05c-16.509,0-29.94-13.481-29.94-30.05
		C182.509,28.479,195.94,15,212.449,15z"/>
	<path d="M283.987,148.117l-7.646-38.342c-2.387-11.961-13.793-21.331-25.967-21.331h-16.532c-1.993,0-3.904,0.793-5.311,2.204
		l-16.082,16.129l-16.082-16.129c-1.406-1.411-3.317-2.204-5.311-2.204h-16.534c-4.535,0-8.957,1.311-12.85,3.563
		c-6.376-2.557-13.321-3.979-20.597-3.979c-6.489,0-12.718,1.131-18.513,3.187c-3.519-1.765-7.404-2.771-11.378-2.771H94.652
		c-1.993,0-3.904,0.793-5.311,2.204L73.26,106.777L57.178,90.648c-1.406-1.411-3.317-2.204-5.311-2.204H35.333
		c-12.175,0-23.58,9.37-25.966,21.332l-7.647,38.341c-0.439,2.203,0.132,4.486,1.557,6.224c1.425,1.736,3.553,2.743,5.799,2.743
		h77.97c5.961,24.362,27.918,42.495,54.03,42.495c26.112,0,48.069-18.133,54.03-42.495h81.525c2.246,0,4.374-1.007,5.799-2.743
		C283.855,152.604,284.427,150.32,283.987,148.117z M24.078,112.71c0.984-4.936,6.243-9.266,11.255-9.266h13.421l19.194,19.251
		c1.407,1.411,3.318,2.204,5.311,2.204c1.993,0,3.904-0.793,5.311-2.204l19.195-19.251h4.97
		c-10.257,9.796-16.791,23.461-17.252,38.64H18.22L24.078,112.71z M141.076,184.579c-22.407,0-40.637-18.293-40.637-40.777
		c0-22.482,18.229-40.773,40.637-40.773c22.407,0,40.637,18.291,40.637,40.773C181.713,166.286,163.483,184.579,141.076,184.579z
		 M196.669,142.084c-0.461-15.179-6.995-28.844-17.252-38.64h8.526l19.194,19.251c1.407,1.411,3.318,2.204,5.312,2.204
		c1.993,0,3.904-0.793,5.311-2.204l19.195-19.251h13.419c5.012,0,10.271,4.33,11.256,9.266l5.858,29.374H196.669z"/>
	<path d="M221.12,227.445c-2.876-14.412-16.616-25.702-31.282-25.702h-21.257c-1.993,0-3.904,0.793-5.311,2.204l-22.194,22.259
		l-22.194-22.259c-1.406-1.411-3.317-2.204-5.311-2.204H92.313c-14.666,0-28.407,11.29-31.283,25.703l-9.83,49.295
		c-0.439,2.203,0.132,4.486,1.557,6.224c1.425,1.736,3.553,2.743,5.799,2.743h165.041c2.246,0,4.374-1.007,5.799-2.743
		c1.425-1.737,1.996-4.021,1.557-6.224L221.12,227.445z M67.699,270.708l8.042-40.327c1.449-7.266,9.193-13.638,16.572-13.638
		h18.145l25.308,25.381c1.406,1.411,3.317,2.204,5.311,2.204c1.993,0,3.904-0.793,5.31-2.204l25.308-25.381h18.144
		c7.379,0,15.122,6.372,16.571,13.637l8.044,40.328H67.699z"/>
</g>
</svg>